<svg id="Capa_1" data-name="Capa 1" xmlns="http://www.w3.org/2000/svg" viewBox="0 0 75 75"><defs><style>.cls-1{fill:#333;}.cls-2{fill:#fff;}</style></defs><title>alumnas</title><circle class="cls-1" cx="37.5" cy="37.5" r="37.5"/><path class="cls-2" d="M37.5,17.45a19.7,19.7,0,0,1,5.32.71,20.08,20.08,0,0,1,14,14,19.7,19.7,0,0,1,.71,5.32V57.55H50.66a6.86,6.86,0,0,1-5-2.18A17.44,17.44,0,0,1,41.71,57a15.93,15.93,0,0,1-8.42,0,17.44,17.44,0,0,1-3.93-1.61,6.86,6.86,0,0,1-5,2.18H17.45V37.5a19.7,19.7,0,0,1,.71-5.32,20.1,20.1,0,0,1,14-14A19.67,19.67,0,0,1,37.5,17.45ZM51.29,33.73a11.12,11.12,0,0,1-3.08-.43,11.32,11.32,0,0,1-6.95-5.69v4.86a8.7,8.7,0,0,1-2.57-.38A8.87,8.87,0,0,1,36.38,31a8.76,8.76,0,0,1-1.89-1.7,8.46,8.46,0,0,1-1.33-2.23,9.6,9.6,0,0,1-1.47,2.73,10,10,0,0,1-2.2,2.1,10.26,10.26,0,0,1-2.72,1.35,9.83,9.83,0,0,1-3.06.48v7.53a13.42,13.42,0,0,0,.5,3.66,13.88,13.88,0,0,0,1.39,3.29A14.08,14.08,0,0,0,27.75,51a13.59,13.59,0,0,0,2.79,2.16,13.78,13.78,0,0,0,3.3,1.39,14,14,0,0,0,7.32,0,13.78,13.78,0,0,0,3.3-1.39A13.59,13.59,0,0,0,47.25,51a14.08,14.08,0,0,0,2.15-2.79,13.88,13.88,0,0,0,1.39-3.29,13.42,13.42,0,0,0,.5-3.66Zm-20.68,0a1.79,1.79,0,0,1,.72.15,1.89,1.89,0,0,1,1,1,1.79,1.79,0,0,1,.15.72v2.51a1.79,1.79,0,0,1-.15.72,2.11,2.11,0,0,1-.39.6,1.72,1.72,0,0,1-.59.41,1.85,1.85,0,0,1-.73.15,1.83,1.83,0,0,1-.74-.15,1.89,1.89,0,0,1-1-1,1.83,1.83,0,0,1-.15-.74V35.62a1.85,1.85,0,0,1,.15-.73,1.72,1.72,0,0,1,.41-.59,2.11,2.11,0,0,1,.6-.39A1.79,1.79,0,0,1,30.61,33.75ZM37.5,47.53a4,4,0,0,0,1.27-.19,8,8,0,0,0,1-.43l.83-.44a1.32,1.32,0,0,1,.62-.2,1.28,1.28,0,0,1,1.26,1.26,1.16,1.16,0,0,1-.13.56,1.39,1.39,0,0,1-.37.44,6.23,6.23,0,0,1-2.13,1.13,7.63,7.63,0,0,1-4.78,0A6.23,6.23,0,0,1,33,48.52a1.43,1.43,0,0,1-.37-.43,1.15,1.15,0,0,1-.13-.57,1.28,1.28,0,0,1,1.26-1.26,1.32,1.32,0,0,1,.62.2l.83.44a8,8,0,0,0,1,.43A4,4,0,0,0,37.5,47.53Zm0-3.77A2.47,2.47,0,0,1,35.73,43a2.6,2.6,0,0,1-.54-.79,2.39,2.39,0,0,1-.2-1h5a2.39,2.39,0,0,1-.2,1,2.6,2.6,0,0,1-.54.79,2.47,2.47,0,0,1-1.77.72Zm5-8.14a1.79,1.79,0,0,1,.15-.72,1.89,1.89,0,0,1,1-1,1.84,1.84,0,0,1,1.45,0,2.11,2.11,0,0,1,.6.39,1.72,1.72,0,0,1,.41.59,1.85,1.85,0,0,1,.15.73v2.51a1.83,1.83,0,0,1-.15.74,1.91,1.91,0,0,1-.4.59,1.88,1.88,0,0,1-.6.4,1.85,1.85,0,0,1-.73.15,1.83,1.83,0,0,1-.74-.15,1.74,1.74,0,0,1-.58-.41,2.11,2.11,0,0,1-.39-.6,1.79,1.79,0,0,1-.15-.72Z"/></svg>