<svg id="Capa_1" data-name="Capa 1" xmlns="http://www.w3.org/2000/svg" viewBox="0 0 100 100"><defs><style>.cls-1{fill:#333;}.cls-2{fill:#fff;}</style></defs><title>clases</title><circle class="cls-1" cx="50" cy="50" r="50"/><path class="cls-2" d="M74,26.61h5.94V73.39H55.73A7,7,0,0,1,53,74.83a11,11,0,0,1-6.09,0,7,7,0,0,1-2.68-1.45H20.05V26.61H26l1.88-1.87H44.38a9.12,9.12,0,0,1,3,.48A9.92,9.92,0,0,1,50,26.61a9.92,9.92,0,0,1,2.67-1.39,9.12,9.12,0,0,1,3-.48H72.14Zm2.19,43V30.34H72.45l1.88,1.87V67.79H52.76a9,9,0,0,0-1,.05,3,3,0,0,0-.87.22,1.5,1.5,0,0,0-.64.52,1.75,1.75,0,0,0-.27,1,1.68,1.68,0,0,0-.43-1.11,1.91,1.91,0,0,0-.94-.51,5.25,5.25,0,0,0-1.2-.13H25.68V32.21l1.85-1.87H23.8V69.66H46.25a1.15,1.15,0,0,0,.43.91,3.19,3.19,0,0,0,1,.57,6.6,6.6,0,0,0,1.24.3,7.67,7.67,0,0,0,1.05.09,7.56,7.56,0,0,0,1-.09,6.32,6.32,0,0,0,1.25-.31,3.51,3.51,0,0,0,1-.57,1.11,1.11,0,0,0,.43-.9ZM44.38,28.46h-15V64Q32.24,64,35,64t5.63-.05h1.94a14.89,14.89,0,0,1,2,.1,8.65,8.65,0,0,1,1.89.44,5,5,0,0,1,1.67,1V29.9a5.67,5.67,0,0,0-3.75-1.43Zm26.22,0h-15a5.67,5.67,0,0,0-3.75,1.43V65.47a5,5,0,0,1,2.5-1.25A15.6,15.6,0,0,1,57.21,64l6.69,0L70.6,64Z"/></svg>