<svg id="Capa_1" data-name="Capa 1" xmlns="http://www.w3.org/2000/svg" viewBox="0 0 75 75"><defs><style>.cls-1{fill:#333;}.cls-2{fill:#fff;}</style></defs><title>cursos</title><circle class="cls-1" cx="37.5" cy="37.5" r="37.5"/><path class="cls-2" d="M51.9,52.15a6.46,6.46,0,0,1,2.55.55,6.77,6.77,0,0,1,2.08,1.43,6.68,6.68,0,0,1,1.4,2.09,6.43,6.43,0,0,1,.51,2.55V62.1H46.7l-2.38-3.53A18.09,18.09,0,0,1,33.54,62.1H16.94v-5a11.56,11.56,0,0,1,.59-3.9A12.05,12.05,0,0,1,19,50.32a14,14,0,0,1,1.94-2.23q1.05-1,2-1.88a12.66,12.66,0,0,0,1.57-1.86,4.33,4.33,0,0,0,.74-2.15,4.8,4.8,0,0,1-1.94-.39,5,5,0,0,1-1.57-1.07,5.19,5.19,0,0,1-1.06-1.58,4.8,4.8,0,0,1-.39-1.94V30.56A4.39,4.39,0,0,1,21.79,27a8,8,0,0,1,1.59-1.09l1.85-1V19a4.57,4.57,0,0,1,.12-1,6.46,6.46,0,0,1,.3-1,9.14,9.14,0,0,1-.3-1.06,5.09,5.09,0,0,1-.12-1.09,5.61,5.61,0,0,1,.46-2.26,5.85,5.85,0,0,1,3.09-3.09A5.61,5.61,0,0,1,31,9a5.69,5.69,0,0,1,1.34.16,6,6,0,0,1,1.27.46A8.34,8.34,0,0,1,36.84,9a7.77,7.77,0,0,1,2.55.38,8.17,8.17,0,0,1,2,1,13.6,13.6,0,0,1,1.79,1.51l1.8,1.8a5,5,0,0,1,1.59-1,4.88,4.88,0,0,1,1.87-.37,4.74,4.74,0,0,1,1.92.39,5.09,5.09,0,0,1,2.66,2.66,4.74,4.74,0,0,1,.39,1.92v6.65a4.93,4.93,0,0,1-.73,2.62,4.86,4.86,0,0,1-2,1.84l-4.53,2.26a6.58,6.58,0,0,1,4,2.24,6.92,6.92,0,0,1,1.17,2,6.43,6.43,0,0,1,.43,2.33v6.65a19,19,0,0,1-.28,3.24,15.89,15.89,0,0,1-.88,3.13ZM33.54,58.78a14.8,14.8,0,0,0,4-.53,14.55,14.55,0,0,0,3.57-1.51,15.29,15.29,0,0,0,5.36-5.37,14.85,14.85,0,0,0,1.51-3.56,14.55,14.55,0,0,0,.53-3.95V37.21a3.16,3.16,0,0,0-.27-1.29,3.41,3.41,0,0,0-1.77-1.77,3.16,3.16,0,0,0-1.29-.27,2.89,2.89,0,0,0-1.28.27,5,5,0,0,0-1.07.73l-2.63,2.33V32.09a2.4,2.4,0,0,0,1.2-.9,2.44,2.44,0,0,0,.46-1.45,1.9,1.9,0,0,0-.08-.58,4.83,4.83,0,0,0-.22-.55l-1.36-3H38.51v2.49a2.37,2.37,0,0,1-.2,1A2.5,2.5,0,0,1,37,30.37a2.37,2.37,0,0,1-1,.2h-.42a1.29,1.29,0,0,1-.42-.13A2.48,2.48,0,0,1,34,29.58a2.94,2.94,0,0,1-.47-1.17A5.73,5.73,0,0,1,33.5,27q0-.73,0-1.44H31.88v7.23a5,5,0,0,0-.88.51,6.45,6.45,0,0,0-.78.67,5,5,0,0,0-1.28,2,8.57,8.57,0,0,0-.39,2.17,20.84,20.84,0,0,0,0,2.3,13.54,13.54,0,0,1-.07,2.37,9,9,0,0,1-.63,2.39,7.46,7.46,0,0,1-1.67,2.38l-1.93,1.93-1.93,1.93a6.31,6.31,0,0,0-1.58,2.63,10.15,10.15,0,0,0-.47,3v1.66h8.29a21.87,21.87,0,0,1,.36-3.83,27.83,27.83,0,0,1,1-4,28.25,28.25,0,0,1,1.58-3.79,23.3,23.3,0,0,1,2-3.32Zm-10-21.56a1.61,1.61,0,0,0,.48,1.17,1.56,1.56,0,0,0,1.15.5,1.66,1.66,0,0,0,1.66-1.66V31.6l3.32-1.66V26.22l-5.73,2.86a1.58,1.58,0,0,0-.66.61,1.65,1.65,0,0,0-.24.87ZM41.83,17.15a4.47,4.47,0,0,0-.27-1.52,5.27,5.27,0,0,0-.73-1.36l0,0a22.87,22.87,0,0,1-1.88,1.33,10,10,0,0,1-2.07,1,10.39,10.39,0,0,1-2,.53,13.65,13.65,0,0,1-2.1.16h-.83v1.82a4.66,4.66,0,0,0,.39,1.9,4.85,4.85,0,0,0,1.07,1.55,5.06,5.06,0,0,0,7,0A5.05,5.05,0,0,0,41.43,21a4.53,4.53,0,0,0,.4-1.92ZM34.37,19a.83.83,0,1,1-.59.24A.8.8,0,0,1,34.37,19Zm1.66,10a.76.76,0,0,0,.57-.25.81.81,0,0,0,.24-.58V25.6H35.2v2.49a.87.87,0,0,0,.83.83Zm3.3-10a.83.83,0,1,1-.59.24A.8.8,0,0,1,39.34,19Zm2.56,6.42.69,1.51q.35.75.67,1.51l6-3a1.58,1.58,0,0,0,.66-.61,1.65,1.65,0,0,0,.24-.87V17.29a1.66,1.66,0,0,0-1.64-1.64,1.61,1.61,0,0,0-1.17.48,1.56,1.56,0,0,0-.5,1.15v5.63Zm5,31L48,55.23q.58-.57,1.15-1.17L47.9,52.15q-.44.74-.94,1.44a12.84,12.84,0,0,1-1.07,1.33Zm8.24,2.4a3.16,3.16,0,0,0-.27-1.29,3.44,3.44,0,0,0-.72-1.05,3.28,3.28,0,0,0-2.34-1H50.12l-2.31,2.31.67,1Z"/></svg>