<svg id="Capa_1" data-name="Capa 1" xmlns="http://www.w3.org/2000/svg" viewBox="0 0 100 100"><defs><style>.cls-1{fill:#333;}.cls-2{fill:#fff;}</style></defs><title>novias</title><circle class="cls-1" cx="50" cy="50" r="50"/><path class="cls-2" d="M60.73,16.74H62a18.86,18.86,0,0,1,4,.43,19.39,19.39,0,0,1,3.82,1.25,16.82,16.82,0,0,1,6,4.4,21.93,21.93,0,0,1,3.69,6.15,30.86,30.86,0,0,1,1.87,7.14,53.17,53.17,0,0,1,.53,7.39V65.71a8.45,8.45,0,0,1-1.07,4.15,7.53,7.53,0,0,1-3,3V80H24.77V72.87A7.56,7.56,0,0,1,23,71.56a8,8,0,0,1-1.28-1.7,8.62,8.62,0,0,1-.81-2,8.29,8.29,0,0,1-.28-2.14V43.47a53.17,53.17,0,0,1,.53-7.39,30.86,30.86,0,0,1,1.87-7.14,21.93,21.93,0,0,1,3.69-6.15,16.82,16.82,0,0,1,6-4.4,19.39,19.39,0,0,1,3.82-1.25,18.86,18.86,0,0,1,4-.43h1.28a22.54,22.54,0,0,1,18.89,0Zm17.1,26.73a48,48,0,0,0-.3-5.3,32.52,32.52,0,0,0-1-5.21,23.72,23.72,0,0,0-1.89-4.74,14.85,14.85,0,0,0-2.93-3.86,12.94,12.94,0,0,0-4.13-2.6,14.8,14.8,0,0,0-5.51-1l-1.07,0a9.38,9.38,0,0,0-1,.11,17.2,17.2,0,0,1,1.59,1q.77.54,1.51,1.14a18.56,18.56,0,0,1-2.74,1q-1.49.41-3.05.68t-3.1.41q-1.53.14-2.9.14a26.88,26.88,0,0,1-2.85-.16,25.57,25.57,0,0,1-2.91-.48,22.06,22.06,0,0,1-2.83-.84,15.68,15.68,0,0,1-2.57-1.22q.6-.48,1.22-.89t1.28-.78l-1-.1q-.51,0-1,0a14.88,14.88,0,0,0-5.54,1,13.11,13.11,0,0,0-4.15,2.6A14.61,14.61,0,0,0,28,28.2a24.18,24.18,0,0,0-1.89,4.74,32.12,32.12,0,0,0-1,5.21,48.33,48.33,0,0,0-.3,5.31V65.71a4.2,4.2,0,0,0,.55,2.07,3.74,3.74,0,0,0,1.49,1.51,15.87,15.87,0,0,1,1.56-7,15.49,15.49,0,0,1,4.52-5.54V37.14a17.92,17.92,0,0,1,1.28-6.72,18.45,18.45,0,0,1,3.69-5.78,15.56,15.56,0,0,0,3,1.63,24.46,24.46,0,0,0,3.39,1.09,26.35,26.35,0,0,0,3.52.61,33.37,33.37,0,0,0,3.45.18q1.62,0,3.47-.18t3.68-.55A32,32,0,0,0,62,26.48a20.12,20.12,0,0,0,3.2-1.34,17.94,17.94,0,0,1,3.34,5.58,18.17,18.17,0,0,1,1.15,6.41v19.6a15.48,15.48,0,0,1,4.56,5.55,15.84,15.84,0,0,1,1.58,7,3.87,3.87,0,0,0,1.48-1.52,4.21,4.21,0,0,0,.54-2.06ZM73.77,69.12a13.22,13.22,0,0,0-1.08-5.33,13.61,13.61,0,0,0-7.29-7.23,13.46,13.46,0,0,0-5.3-1.05H55.56a2,2,0,0,1,1.32.64,1.93,1.93,0,0,1,.55,1.38,1.47,1.47,0,0,1-.07.47,3.37,3.37,0,0,1-.18.44l-4.09,8.18a2.1,2.1,0,0,1-.72.82,1.88,1.88,0,0,1-1.07.31,2,2,0,0,1-1.07-.31,2,2,0,0,1-.75-.82l-4.06-8.18a3.37,3.37,0,0,1-.18-.44,1.47,1.47,0,0,1-.07-.47,2,2,0,0,1,1.87-2H42.49a13.39,13.39,0,0,0-5.27,1.05,13.65,13.65,0,0,0-4.35,2.9,14,14,0,0,0-3,4.33,13.08,13.08,0,0,0-1.09,5.33v6.79H73.77ZM37,39.12a14,14,0,0,0,1.12,5.57,14.39,14.39,0,0,0,7.58,7.64,14.28,14.28,0,0,0,11.16,0,14.39,14.39,0,0,0,7.58-7.64,14,14,0,0,0,1.12-5.57v-4A21.35,21.35,0,0,1,62,34.78a14.79,14.79,0,0,1-3.48-1,12.12,12.12,0,0,1-3-1.89A8.31,8.31,0,0,1,53.34,29V33a16.23,16.23,0,0,1-2.46-.18,9.61,9.61,0,0,1-2.29-.64,7.28,7.28,0,0,1-2-1.24,6.35,6.35,0,0,1-1.49-2,8.57,8.57,0,0,1-1.24,2.41A9.24,9.24,0,0,1,42,33.34a8.87,8.87,0,0,1-2.36,1.28,7.73,7.73,0,0,1-2.66.47Zm8.15,2.07a2,2,0,0,1-2-2v-2a2,2,0,0,1,.6-1.43,1.92,1.92,0,0,1,1.42-.61,2,2,0,0,1,2,2v2a1.92,1.92,0,0,1-.61,1.42A2,2,0,0,1,45.16,41.2Zm6.14,8.18a3.89,3.89,0,0,1-1.59-.33,4.2,4.2,0,0,1-2.17-2.17,3.89,3.89,0,0,1-.33-1.59h8.18a4,4,0,0,1-.33,1.6,4.18,4.18,0,0,1-.88,1.31,4,4,0,0,1-2.88,1.18Zm0-6.14a2,2,0,0,1-2-2h4.09a2,2,0,0,1-2,2Zm6.14-2A2,2,0,0,1,56,40.6a1.92,1.92,0,0,1-.61-1.42v-2a2,2,0,0,1,4.09,0v2a1.92,1.92,0,0,1-.61,1.42A2,2,0,0,1,57.43,41.2Z"/></svg>